<svg width="28" height="30" viewBox="0 0 28 30" fill="none" xmlns="http://www.w3.org/2000/svg">
<path d="M3 23.7318V6.26929C3 4.82934 3 4.10857 3.29349 3.68253C3.54964 3.31068 3.94446 3.06654 4.38278 3.00817C4.88481 2.94132 5.50055 3.28037 6.73026 3.95751L22.5866 12.6888L22.5923 12.6914C23.9513 13.4397 24.6311 13.8141 24.8541 14.313C25.0486 14.7482 25.0486 15.2506 24.8541 15.6859C24.6308 16.1855 23.9494 16.5614 22.5866 17.3118L6.73026 26.0431C5.49967 26.7207 4.88499 27.0584 4.38278 26.9916C3.94446 26.9332 3.54964 26.6891 3.29349 26.3172C3 25.8912 3 25.1718 3 23.7318Z" stroke="white" stroke-width="6" stroke-linecap="round" stroke-linejoin="round"/>
</svg>
