<svg width="19" height="21" viewBox="0 0 19 21" fill="none" xmlns="http://www.w3.org/2000/svg">
<path d="M0.5 7.16667H18.5M0.5 7.16667V16.9447C0.5 18.1892 0.5 18.8112 0.745235 19.2865C0.96095 19.7047 1.30491 20.045 1.72827 20.258C2.2091 20.5 2.83887 20.5 4.09652 20.5H14.9035C16.1611 20.5 16.79 20.5 17.2708 20.258C17.6942 20.045 18.0393 19.7047 18.255 19.2865C18.5 18.8116 18.5 18.1905 18.5 16.9484V7.16667M0.5 7.16667V6.278C0.5 5.03343 0.5 4.41069 0.745235 3.93533C0.96095 3.51719 1.30491 3.17748 1.72827 2.96443C2.20957 2.72222 2.8401 2.72222 4.10022 2.72222H5M18.5 7.16667V6.27434C18.5 5.03222 18.5 4.41022 18.255 3.93533C18.0393 3.51719 17.6942 3.17748 17.2708 2.96443C16.7895 2.72222 16.1603 2.72222 14.9002 2.72222H14M5 2.72222H14M5 2.72222V0.5M14 2.72222V0.5M12.875 11.6111L8.375 16.0556L6.125 13.8333" stroke="#2A2A2A" stroke-linecap="round" stroke-linejoin="round"/>
</svg>
