<svg width="21" height="21" viewBox="0 0 21 21" fill="none" xmlns="http://www.w3.org/2000/svg">
<path d="M10.5 14.25L14.25 10.5M14.25 10.5L10.5 6.75M14.25 10.5H0.5M6.75 4.56073V4.50024C6.75 3.10011 6.75 2.39953 7.02248 1.86475C7.26217 1.39434 7.64434 1.01217 8.11475 0.772484C8.64953 0.5 9.35011 0.5 10.7502 0.5H16.5002C17.9004 0.5 18.5995 0.5 19.1342 0.772484C19.6046 1.01217 19.9881 1.39434 20.2278 1.86475C20.5 2.399 20.5 3.09874 20.5 4.49614V16.5045C20.5 17.9019 20.5 18.6006 20.2278 19.1349C19.9881 19.6053 19.6046 19.9881 19.1342 20.2278C18.6 20.5 17.9013 20.5 16.5039 20.5H10.7461C9.34874 20.5 8.649 20.5 8.11475 20.2278C7.64434 19.9881 7.26217 19.6049 7.02248 19.1345C6.75 18.5997 6.75 17.9001 6.75 16.5V16.4375" stroke="#2A2A2A" stroke-linecap="round" stroke-linejoin="round"/>
</svg>
