<svg width="21" height="21" viewBox="0 0 21 21" fill="none" xmlns="http://www.w3.org/2000/svg">
<path d="M7.32943 7.24846C7.5192 6.66369 7.86683 6.14329 8.3342 5.74387C8.80157 5.34445 9.37089 5.08198 9.97808 4.98564C10.5853 4.88931 11.2069 4.96266 11.775 5.19781C12.343 5.43295 12.8349 5.82083 13.1964 6.31814C13.5579 6.81546 13.7743 7.40284 13.8226 8.01573C13.871 8.62862 13.7487 9.2431 13.4697 9.79091C13.1906 10.3387 12.766 10.7983 12.2418 11.1196C11.7176 11.4408 11.1148 11.6109 10.5 11.6109V12.7225M10.5 20.5C4.97715 20.5 0.5 16.0228 0.5 10.5C0.5 4.97715 4.97715 0.5 10.5 0.5C16.0228 0.5 20.5 4.97715 20.5 10.5C20.5 16.0228 16.0228 20.5 10.5 20.5ZM10.5553 16.0556V16.1667L10.4447 16.1669V16.0556H10.5553Z" stroke="#2A2A2A" stroke-linecap="round" stroke-linejoin="round"/>
</svg>
