<svg width="23" height="21" viewBox="0 0 23 21" fill="none" xmlns="http://www.w3.org/2000/svg">
<path d="M7.83333 9.24995V20.4999M7.83333 9.24995H2.45508C1.77057 9.24995 1.42866 9.24995 1.16721 9.38619C0.937233 9.50603 0.750393 9.69711 0.633214 9.93232C0.5 10.1997 0.5 10.55 0.5 11.2501V20.4999H7.83333M7.83333 9.24995V2.50011C7.83333 1.80005 7.83333 1.44976 7.96655 1.18237C8.08373 0.947168 8.27057 0.756082 8.50054 0.636241C8.76199 0.5 9.1039 0.5 9.78841 0.5H13.2106C13.8951 0.5 14.2381 0.5 14.4996 0.636241C14.7295 0.756082 14.9158 0.947168 15.033 1.18237C15.1662 1.44976 15.1667 1.80005 15.1667 2.50011V5.49997M7.83333 20.4999H15.1667M15.1667 20.4999L22.5 20.5V7.50008C22.5 6.80002 22.4995 6.44973 22.3663 6.18234C22.2491 5.94714 22.0636 5.75605 21.8336 5.63621C21.5722 5.49997 21.229 5.49997 20.5444 5.49997H15.1667M15.1667 20.4999V5.49997" stroke="#2A2A2A" stroke-linecap="round" stroke-linejoin="round"/>
</svg>
