<svg width="16" height="21" viewBox="0 0 16 21" fill="none" xmlns="http://www.w3.org/2000/svg">
<path d="M0.5 4.43557V16.1003C0.5 17.7741 0.5 18.6109 0.755148 19.123C1.22806 20.0723 2.26447 20.6178 3.32959 20.4784C3.90425 20.4032 4.61204 19.939 6.02762 19.0105L6.03102 19.0083C6.59211 18.6403 6.87269 18.4562 7.16619 18.3542C7.70526 18.1667 8.29345 18.1667 8.83252 18.3542C9.12661 18.4564 9.4083 18.6412 9.97165 19.0107C11.3872 19.9391 12.0958 20.403 12.6705 20.4782C13.7356 20.6176 14.772 20.0723 15.2449 19.123C15.5 18.6109 15.5 17.7739 15.5 16.1003V4.43153C15.5 3.05673 15.5 2.3683 15.2278 1.84268C14.9881 1.37988 14.6046 1.00389 14.1342 0.768078C13.5995 0.5 12.9004 0.5 11.5002 0.5H4.50024C3.10011 0.5 2.39953 0.5 1.86475 0.768078C1.39434 1.00389 1.01217 1.37988 0.772484 1.84268C0.5 2.36881 0.5 3.05807 0.5 4.43557Z" stroke="#2A2A2A" stroke-linecap="round" stroke-linejoin="round"/>
</svg>
