<svg width="10" height="12" viewBox="0 0 10 12" fill="none" xmlns="http://www.w3.org/2000/svg">
<path d="M6.6875 2.02775V9.97204C6.6875 10.256 6.6875 10.398 6.70912 10.516C6.79789 11.0009 7.1465 11.3801 7.59277 11.4765C7.70145 11.5 7.83213 11.5 8.0935 11.5C8.35487 11.5 8.48605 11.5 8.59473 11.4765C9.041 11.3801 9.38981 11.0009 9.47858 10.516C9.5 10.399 9.5 10.2585 9.5 9.97952V2.02027C9.5 1.74129 9.5 1.60051 9.47858 1.48349C9.38981 0.998653 9.04075 0.619924 8.59448 0.523484C8.4858 0.5 8.35512 0.5 8.09375 0.5C7.83238 0.5 7.70145 0.5 7.59277 0.523484C7.1465 0.619924 6.79789 0.998653 6.70912 1.48349C6.6875 1.60155 6.6875 1.7438 6.6875 2.02775Z" stroke="#2A2A2A" stroke-linecap="round" stroke-linejoin="round"/>
<path d="M0.5 2.02775V9.97204C0.5 10.256 0.5 10.398 0.521617 10.516C0.610387 11.0009 0.958996 11.3801 1.40527 11.4765C1.51395 11.5 1.64463 11.5 1.906 11.5C2.16737 11.5 2.29855 11.5 2.40723 11.4765C2.8535 11.3801 3.20231 11.0009 3.29108 10.516C3.3125 10.399 3.3125 10.2585 3.3125 9.97952V2.02027C3.3125 1.74129 3.3125 1.60051 3.29108 1.48349C3.20231 0.998653 2.85325 0.619924 2.40698 0.523484C2.2983 0.5 2.16762 0.5 1.90625 0.5C1.64488 0.5 1.51395 0.5 1.40527 0.523484C0.958996 0.619924 0.610386 0.998653 0.521617 1.48349C0.5 1.60155 0.5 1.7438 0.5 2.02775Z" stroke="#2A2A2A" stroke-linecap="round" stroke-linejoin="round"/>
</svg>
